<?xml version="1.0" encoding="UTF-8"?>
<svg xmlns="http://www.w3.org/2000/svg" viewBox="0 0 600 600" width="100%" height="100%" preserveAspectRatio="xMidYMid meet">
  <defs>
    <style>
      .label{font-family: 'Inter', system-ui, -apple-system, 'Segoe UI', Roboto, 'Helvetica Neue', Arial; font-size:12px; fill:#fff}
      .pillar{font-weight:700}
      .seg{stroke:#0a0a0b;stroke-width:1}
    </style>
  </defs>
  <rect width="100%" height="100%" rx="20" fill="#0f0f10"/>
  <g transform="translate(300,300)">
    <!-- 21 segments grouped into 7 pillar colors (3 segments each) -->
    <!-- Colors chosen to match brand palette -->
    <g id="segments">
      <!-- loop through 21 segments via manual paths -->
      <!-- for readability, segments are approximated as arcs with varying radii -->
      <!-- pillar colors: cyan, violet, green, amber, blue, teal, purple (repeated) -->
      <!-- segment generation simplified for hand-crafted SVG -->
      <!-- SEGMENTS -->
      <g id="seg0" transform="rotate(0)">
        <path class="seg" d="M120 0 A120 120 0 0 1 90.92 64.28 L60.18 51.14 A80 80 0 0 0 97.98 4.51 Z" fill="#22d3ee"/>
      </g>
      <g id="seg1" transform="rotate(17.1429)">
        <path class="seg" d="M120 0 A120 120 0 0 1 90.92 64.28 L60.18 51.14 A80 80 0 0 0 97.98 4.51 Z" fill="#22d3ee"/>
      </g>
      <g id="seg2" transform="rotate(34.2857)">
        <path class="seg" d="M120 0 A120 120 0 0 1 90.92 64.28 L60.18 51.14 A80 80 0 0 0 97.98 4.51 Z" fill="#22d3ee"/>
      </g>

      <g id="seg3" transform="rotate(51.4286)">
        <path class="seg" d="M120 0 A120 120 0 0 1 90.92 64.28 L60.18 51.14 A80 80 0 0 0 97.98 4.51 Z" fill="#8b5cf6"/>
      </g>
      <g id="seg4" transform="rotate(68.5714)">
        <path class="seg" d="M120 0 A120 120 0 0 1 90.92 64.28 L60.18 51.14 A80 80 0 0 0 97.98 4.51 Z" fill="#8b5cf6"/>
      </g>
      <g id="seg5" transform="rotate(85.7143)">
        <path class="seg" d="M120 0 A120 120 0 0 1 90.92 64.28 L60.18 51.14 A80 80 0 0 0 97.98 4.51 Z" fill="#8b5cf6"/>
      </g>

      <g id="seg6" transform="rotate(102.857)">
        <path class="seg" d="M120 0 A120 120 0 0 1 90.92 64.28 L60.18 51.14 A80 80 0 0 0 97.98 4.51 Z" fill="#10b981"/>
      </g>
      <g id="seg7" transform="rotate(120)">
        <path class="seg" d="M120 0 A120 120 0 0 1 90.92 64.28 L60.18 51.14 A80 80 0 0 0 97.98 4.51 Z" fill="#10b981"/>
      </g>
      <g id="seg8" transform="rotate(137.143)">
        <path class="seg" d="M120 0 A120 120 0 0 1 90.92 64.28 L60.18 51.14 A80 80 0 0 0 97.98 4.51 Z" fill="#10b981"/>
      </g>

      <g id="seg9" transform="rotate(154.286)">
        <path class="seg" d="M120 0 A120 120 0 0 1 90.92 64.28 L60.18 51.14 A80 80 0 0 0 97.98 4.51 Z" fill="#f59e0b"/>
      </g>
      <g id="seg10" transform="rotate(171.429)">
        <path class="seg" d="M120 0 A120 120 0 0 1 90.92 64.28 L60.18 51.14 A80 80 0 0 0 97.98 4.51 Z" fill="#f59e0b"/>
      </g>
      <g id="seg11" transform="rotate(188.571)">
        <path class="seg" d="M120 0 A120 120 0 0 1 90.92 64.28 L60.18 51.14 A80 80 0 0 0 97.98 4.51 Z" fill="#f59e0b"/>
      </g>

      <g id="seg12" transform="rotate(205.714)">
        <path class="seg" d="M120 0 A120 120 0 0 1 90.92 64.28 L60.18 51.14 A80 80 0 0 0 97.98 4.51 Z" fill="#4285f4"/>
      </g>
      <g id="seg13" transform="rotate(222.857)">
        <path class="seg" d="M120 0 A120 120 0 0 1 90.92 64.28 L60.18 51.14 A80 80 0 0 0 97.98 4.51 Z" fill="#4285f4"/>
      </g>
      <g id="seg14" transform="rotate(240)">
        <path class="seg" d="M120 0 A120 120 0 0 1 90.92 64.28 L60.18 51.14 A80 80 0 0 0 97.98 4.51 Z" fill="#4285f4"/>
      </g>

      <g id="seg15" transform="rotate(257.143)">
        <path class="seg" d="M120 0 A120 120 0 0 1 90.92 64.28 L60.18 51.14 A80 80 0 0 0 97.98 4.51 Z" fill="#22c1b3"/>
      </g>
      <g id="seg16" transform="rotate(274.286)">
        <path class="seg" d="M120 0 A120 120 0 0 1 90.92 64.28 L60.18 51.14 A80 80 0 0 0 97.98 4.51 Z" fill="#22c1b3"/>
      </g>
      <g id="seg17" transform="rotate(291.429)">
        <path class="seg" d="M120 0 A120 120 0 0 1 90.92 64.28 L60.18 51.14 A80 80 0 0 0 97.98 4.51 Z" fill="#22c1b3"/>
      </g>

      <g id="seg18" transform="rotate(308.571)">
        <path class="seg" d="M120 0 A120 120 0 0 1 90.92 64.28 L60.18 51.14 A80 80 0 0 0 97.98 4.51 Z" fill="#8b5cf6"/>
      </g>
      <g id="seg19" transform="rotate(325.714)">
        <path class="seg" d="M120 0 A120 120 0 0 1 90.92 64.28 L60.18 51.14 A80 80 0 0 0 97.98 4.51 Z" fill="#8b5cf6"/>
      </g>
      <g id="seg20" transform="rotate(342.857)">
        <path class="seg" d="M120 0 A120 120 0 0 1 90.92 64.28 L60.18 51.14 A80 80 0 0 0 97.98 4.51 Z" fill="#8b5cf6"/>
      </g>
    </g>

    <!-- Center label -->
    <circle cx="0" cy="0" r="60" fill="#111113" stroke="rgba(255,255,255,0.04)" stroke-width="1"/>
    <text x="0" y="4" class="label" text-anchor="middle" font-size="14">21‑Point</text>
    <text x="0" y="20" class="label" text-anchor="middle" font-size="11">Verification</text>
  </g>
</svg>